<?xml version="1.0" encoding="UTF-8"?>
<!-- Do not edit this file with editors other than draw.io -->
<!DOCTYPE svg PUBLIC "-//W3C//DTD SVG 1.1//EN" "http://www.w3.org/Graphics/SVG/1.1/DTD/svg11.dtd">
<svg xmlns="http://www.w3.org/2000/svg" xmlns:xlink="http://www.w3.org/1999/xlink" version="1.1" width="1131px" height="448px" viewBox="-0.5 -0.5 1131 448" content="&lt;mxfile host=&quot;app.diagrams.net&quot; modified=&quot;2023-09-04T12:15:16.486Z&quot; agent=&quot;Mozilla/5.0 (Windows NT 10.0; Win64; x64) AppleWebKit/537.36 (KHTML, like Gecko) Chrome/116.0.0.0 Safari/537.36 Edg/116.0.1938.69&quot; etag=&quot;06NwYlxCCJQ_-tuUMiVY&quot; version=&quot;21.7.2&quot; type=&quot;device&quot;&gt;&lt;diagram name=&quot;Page-1&quot; id=&quot;PqO49bc-38PNjyAoOp6x&quot;&gt;5Vvfb+MoEP5rIt09bGWD7SSP16Z7t7q9VaU+XPtIYmqzwsbCuEn2rz+IcfwDN+emSXB2pUiFMWD4vmGYGdwJvEs2f3KUxf+wENMJcMLNBC4mALhuAOUfJdmWkgC6pSDiJNSNasEj+YG10NHSgoQ4bzUUjFFBsrZwxdIUr0RLhjhn63azF0bbb81QhA3B4wpRU/ovCUVcSme+U8v/wiSKqze7jn6SoKqxFuQxCtm6IYL3E3jHGRNlKdncYarAq3Ap+31+4+l+YhynYkiHJ7ZcLjG59bMH/+tL/OXvwvn2KdBzE9tqwTiU69dVxkXMIpYiel9Lbzkr0hCrUR1Zq9t8ZSyTQlcKv2MhtppMVAgmRbFIqH6KN0Q86e6q/KzKN76uLTaNR4ttVUkF3z7VDVX1ufms7rarVf3K9alFvQmbFuWs4Ct8AKtK/RCPsDjQDuzJlbsCswTL+ch+HFMkyGt7HkirZ7RvVzMoC5rEdxA6tULokeTsFWFP/nNDRfoVwQKh8IOE6q4PjMgZAkfbRq+yIdoyup7fHqKcv+7VUYv9NI7XlJnNre8O5vuKNr5nc+PPx0LnT2TJfZuEQjumvI/Rn4VP+FFL/iFCPccmoe0z9jClNqixajz1uK+IFvpNCySQmvc2wyZrlMrwQ7GzjonAjxnaQbCWEVAbez0q5gJvDiNpLlx3gLO2lwB1dV0HI24VYcSNQKTqdnqorPoNzg0Y7io2LZMHWrbpxvX/xzztag+YEwkb5qffGGDgxnCtHkKuVbfiPXFBg2zPn7XJdgJ4LWxPbbINLJ9Q0+PohrBDN7iazR1Ypds49b4VyVLi0VWCmmL3Ioce6ETG04GHXnCuQw+AazGDJ1RiOFCJ3yLzQmGSocSPgpM0sq/E09FpsdWI8j3Z3hNqsTdUi63GhmA02bh3pG+8Wefg3eeCLR27g7m2GmwCyz71cRFUANrZnRtwLWTbzeKNKOlzMc9hMDUfdX93Xf/gHG0bDTJ1Y5I3Ru5cvPjdlIrfuTjttA+mB9vLQjmDk97OeD1uDePqsrpMSuXW/Rt/dF46/BW9dH/gXoNWvXTfUOclYxSj1LoaT92xqbFrgvUlFThCMjAPqHz77VKVIlX6RNIXxT5Tg6rim6nqPEaZEq4oK8LzIquRBHPruerAQPIzZUiYOC7wiiSIVm1N62oFyKqD11ZRMFRFzwfs1AD2jiUZlUs0oF1VD+R05WzlyAmKSIp2K5Qg9LAhQzE5cwmdA8iomOh6AoFtIqolNIjIdfqjCyrajYZoFqMlVu4NqgzHj1FhvDeslbbPekD2ekCenw1kM8dESd6jtxNf/hajQtPreGnAt66ypmsrCmkhTDh/+31UUAYdTwHY3/2mpxCSVZ9iTuVvZIrZtaXWDzVgegs5vg4wu6ppH0xoHkyCFyp6ZRJI5wXR/NCHFRaOdji23Q2v8ksLb1wpYTj0FgvaTRNazgkfefN+rVxbvXaHpju53ArTGl46EzLrfpBuPRMCTVcxZSnu/Sjv0mi5zugSR9B0BxOcML59JXg9qsO2q2r2MxrQdP7UpkTl3cKIoJvPO9CdMcsmq/X/p5U3G/V/+cH7/wA=&lt;/diagram&gt;&lt;/mxfile&gt;" style="background-color: rgb(255, 255, 255);"><defs/><g><path d="M 380 67 L 80.07 67.07 L 80 160.63" fill="none" stroke="rgb(0, 0, 0)" stroke-miterlimit="10" pointer-events="stroke"/><path d="M 80 165.88 L 76.51 158.88 L 80 160.63 L 83.51 158.88 Z" fill="rgb(0, 0, 0)" stroke="rgb(0, 0, 0)" stroke-miterlimit="10" pointer-events="all"/><path d="M 440 107 L 440.07 137.07 L 330.07 137.07 L 330.01 160.63" fill="none" stroke="rgb(0, 0, 0)" stroke-miterlimit="10" pointer-events="stroke"/><path d="M 330 165.88 L 326.52 158.87 L 330.01 160.63 L 333.52 158.89 Z" fill="rgb(0, 0, 0)" stroke="rgb(0, 0, 0)" stroke-miterlimit="10" pointer-events="all"/><path d="M 482.43 95.28 L 580.07 95.33 L 580.01 160.63" fill="none" stroke="rgb(0, 0, 0)" stroke-miterlimit="10" pointer-events="stroke"/><path d="M 580 165.88 L 576.51 158.88 L 580.01 160.63 L 583.51 158.89 Z" fill="rgb(0, 0, 0)" stroke="rgb(0, 0, 0)" stroke-miterlimit="10" pointer-events="all"/><path d="M 500 67 L 770.07 67.07 L 770 160.63" fill="none" stroke="rgb(0, 0, 0)" stroke-miterlimit="10" pointer-events="stroke"/><path d="M 770 165.88 L 766.51 158.88 L 770 160.63 L 773.51 158.88 Z" fill="rgb(0, 0, 0)" stroke="rgb(0, 0, 0)" stroke-miterlimit="10" pointer-events="all"/><path d="M 482.43 38.72 L 910.07 38.67 L 910 160.63" fill="none" stroke="rgb(0, 0, 0)" stroke-miterlimit="10" pointer-events="stroke"/><path d="M 910 165.88 L 906.5 158.88 L 910 160.63 L 913.5 158.88 Z" fill="rgb(0, 0, 0)" stroke="rgb(0, 0, 0)" stroke-miterlimit="10" pointer-events="all"/><path d="M 440 27 L 440.07 7.07 L 1070.07 7.07 L 1070.07 160.63" fill="none" stroke="rgb(0, 0, 0)" stroke-miterlimit="10" pointer-events="stroke"/><path d="M 1070.07 165.88 L 1066.57 158.88 L 1070.07 160.63 L 1073.57 158.88 Z" fill="rgb(0, 0, 0)" stroke="rgb(0, 0, 0)" stroke-miterlimit="10" pointer-events="all"/><ellipse cx="440" cy="67" rx="60" ry="40" fill="rgb(255, 255, 255)" stroke="rgb(0, 0, 0)" pointer-events="all"/><g transform="translate(-0.5 -0.5)"><switch><foreignObject pointer-events="none" width="100%" height="100%" requiredFeatures="http://www.w3.org/TR/SVG11/feature#Extensibility" style="overflow: visible; text-align: left;"><div xmlns="http://www.w3.org/1999/xhtml" style="display: flex; align-items: unsafe center; justify-content: unsafe center; width: 118px; height: 1px; padding-top: 67px; margin-left: 381px;"><div data-drawio-colors="color: rgb(0, 0, 0); " style="box-sizing: border-box; font-size: 0px; text-align: center;"><div style="display: inline-block; font-size: 12px; font-family: Helvetica; color: rgb(0, 0, 0); line-height: 1.2; pointer-events: all; white-space: normal; overflow-wrap: normal;">Data type</div></div></div></foreignObject><text x="440" y="71" fill="rgb(0, 0, 0)" font-family="Helvetica" font-size="12px" text-anchor="middle">Data type</text></switch></g><path d="M 50 227 L 50.07 257.07 L 65 257.07 L 65.03 292.63" fill="none" stroke="rgb(0, 0, 0)" stroke-miterlimit="10" pointer-events="stroke"/><path d="M 65.04 297.88 L 61.53 290.89 L 65.03 292.63 L 68.53 290.88 Z" fill="rgb(0, 0, 0)" stroke="rgb(0, 0, 0)" stroke-miterlimit="10" pointer-events="all"/><path d="M 80 227 L 80.07 292 L 125 292 L 124.96 355.67" fill="none" stroke="rgb(0, 0, 0)" stroke-miterlimit="10" pointer-events="stroke"/><path d="M 124.96 360.92 L 121.46 353.92 L 124.96 355.67 L 128.46 353.92 Z" fill="rgb(0, 0, 0)" stroke="rgb(0, 0, 0)" stroke-miterlimit="10" pointer-events="all"/><path d="M 110 227 L 110.07 247.07 L 192.07 247.07 L 191.99 262.63" fill="none" stroke="rgb(0, 0, 0)" stroke-miterlimit="10" pointer-events="stroke"/><path d="M 191.97 267.88 L 188.5 260.87 L 191.99 262.63 L 195.5 260.9 Z" fill="rgb(0, 0, 0)" stroke="rgb(0, 0, 0)" stroke-miterlimit="10" pointer-events="all"/><rect x="20" y="167" width="120" height="60" rx="9" ry="9" fill="rgb(255, 255, 255)" stroke="rgb(0, 0, 0)" pointer-events="all"/><g transform="translate(-0.5 -0.5)"><switch><foreignObject pointer-events="none" width="100%" height="100%" requiredFeatures="http://www.w3.org/TR/SVG11/feature#Extensibility" style="overflow: visible; text-align: left;"><div xmlns="http://www.w3.org/1999/xhtml" style="display: flex; align-items: unsafe center; justify-content: unsafe center; width: 118px; height: 1px; padding-top: 197px; margin-left: 21px;"><div data-drawio-colors="color: rgb(0, 0, 0); " style="box-sizing: border-box; font-size: 0px; text-align: center;"><div style="display: inline-block; font-size: 12px; font-family: Helvetica; color: rgb(0, 0, 0); line-height: 1.2; pointer-events: all; white-space: normal; overflow-wrap: normal;">Number</div></div></div></foreignObject><text x="80" y="201" fill="rgb(0, 0, 0)" font-family="Helvetica" font-size="12px" text-anchor="middle">Number</text></switch></g><path d="M 330 227 L 330 270.63" fill="none" stroke="rgb(0, 0, 0)" stroke-miterlimit="10" pointer-events="stroke"/><path d="M 330 275.88 L 326.5 268.88 L 330 270.63 L 333.5 268.88 Z" fill="rgb(0, 0, 0)" stroke="rgb(0, 0, 0)" stroke-miterlimit="10" pointer-events="all"/><rect x="270" y="167" width="120" height="60" rx="9" ry="9" fill="rgb(255, 255, 255)" stroke="rgb(0, 0, 0)" pointer-events="all"/><g transform="translate(-0.5 -0.5)"><switch><foreignObject pointer-events="none" width="100%" height="100%" requiredFeatures="http://www.w3.org/TR/SVG11/feature#Extensibility" style="overflow: visible; text-align: left;"><div xmlns="http://www.w3.org/1999/xhtml" style="display: flex; align-items: unsafe center; justify-content: unsafe center; width: 118px; height: 1px; padding-top: 197px; margin-left: 271px;"><div data-drawio-colors="color: rgb(0, 0, 0); " style="box-sizing: border-box; font-size: 0px; text-align: center;"><div style="display: inline-block; font-size: 12px; font-family: Helvetica; color: rgb(0, 0, 0); line-height: 1.2; pointer-events: all; white-space: normal; overflow-wrap: normal;">String</div></div></div></foreignObject><text x="330" y="201" fill="rgb(0, 0, 0)" font-family="Helvetica" font-size="12px" text-anchor="middle">String</text></switch></g><path d="M 520 197 L 480.07 197.07 L 480.01 240.63" fill="none" stroke="rgb(0, 0, 0)" stroke-miterlimit="10" pointer-events="stroke"/><path d="M 480 245.88 L 476.51 238.88 L 480.01 240.63 L 483.51 238.89 Z" fill="rgb(0, 0, 0)" stroke="rgb(0, 0, 0)" stroke-miterlimit="10" pointer-events="all"/><path d="M 640 197 L 668.07 197.07 L 667.97 258.63" fill="none" stroke="rgb(0, 0, 0)" stroke-miterlimit="10" pointer-events="stroke"/><path d="M 667.96 263.88 L 664.47 256.88 L 667.97 258.63 L 671.47 256.89 Z" fill="rgb(0, 0, 0)" stroke="rgb(0, 0, 0)" stroke-miterlimit="10" pointer-events="all"/><path d="M 550 227 L 550.07 297.07 L 545 297.07 L 545 376.63" fill="none" stroke="rgb(0, 0, 0)" stroke-miterlimit="10" pointer-events="stroke"/><path d="M 545 381.88 L 541.5 374.88 L 545 376.63 L 548.5 374.88 Z" fill="rgb(0, 0, 0)" stroke="rgb(0, 0, 0)" stroke-miterlimit="10" pointer-events="all"/><path d="M 580 227 L 580.07 347.07 L 670.07 347.07 L 670.02 360.63" fill="none" stroke="rgb(0, 0, 0)" stroke-miterlimit="10" pointer-events="stroke"/><path d="M 670 365.88 L 666.53 358.87 L 670.02 360.63 L 673.53 358.89 Z" fill="rgb(0, 0, 0)" stroke="rgb(0, 0, 0)" stroke-miterlimit="10" pointer-events="all"/><rect x="520" y="167" width="120" height="60" rx="9" ry="9" fill="rgb(255, 255, 255)" stroke="rgb(0, 0, 0)" pointer-events="all"/><g transform="translate(-0.5 -0.5)"><switch><foreignObject pointer-events="none" width="100%" height="100%" requiredFeatures="http://www.w3.org/TR/SVG11/feature#Extensibility" style="overflow: visible; text-align: left;"><div xmlns="http://www.w3.org/1999/xhtml" style="display: flex; align-items: unsafe center; justify-content: unsafe center; width: 118px; height: 1px; padding-top: 197px; margin-left: 521px;"><div data-drawio-colors="color: rgb(0, 0, 0); " style="box-sizing: border-box; font-size: 0px; text-align: center;"><div style="display: inline-block; font-size: 12px; font-family: Helvetica; color: rgb(0, 0, 0); line-height: 1.2; pointer-events: all; white-space: normal; overflow-wrap: normal;">Storage types</div></div></div></foreignObject><text x="580" y="201" fill="rgb(0, 0, 0)" font-family="Helvetica" font-size="12px" text-anchor="middle">Storage types</text></switch></g><path d="M 770 227 L 770.07 247.07 L 790.07 247.07 L 790.04 250.63" fill="none" stroke="rgb(0, 0, 0)" stroke-miterlimit="10" pointer-events="stroke"/><path d="M 790.01 255.88 L 786.55 248.86 L 790.04 250.63 L 793.55 248.91 Z" fill="rgb(0, 0, 0)" stroke="rgb(0, 0, 0)" stroke-miterlimit="10" pointer-events="all"/><rect x="710" y="167" width="120" height="60" rx="9" ry="9" fill="rgb(255, 255, 255)" stroke="rgb(0, 0, 0)" pointer-events="all"/><g transform="translate(-0.5 -0.5)"><switch><foreignObject pointer-events="none" width="100%" height="100%" requiredFeatures="http://www.w3.org/TR/SVG11/feature#Extensibility" style="overflow: visible; text-align: left;"><div xmlns="http://www.w3.org/1999/xhtml" style="display: flex; align-items: unsafe center; justify-content: unsafe center; width: 118px; height: 1px; padding-top: 197px; margin-left: 711px;"><div data-drawio-colors="color: rgb(0, 0, 0); " style="box-sizing: border-box; font-size: 0px; text-align: center;"><div style="display: inline-block; font-size: 12px; font-family: Helvetica; color: rgb(0, 0, 0); line-height: 1.2; pointer-events: all; white-space: normal; overflow-wrap: normal;">boolean</div></div></div></foreignObject><text x="770" y="201" fill="rgb(0, 0, 0)" font-family="Helvetica" font-size="12px" text-anchor="middle">boolean</text></switch></g><path d="M 30 307 C 6 307 0 327 19.2 331 C 0 339.8 21.6 359 37.2 351 C 48 367 84 367 96 351 C 120 351 120 335 105 327 C 120 311 96 295 75 303 C 60 291 36 291 30 307 Z" fill="rgb(255, 255, 255)" stroke="rgb(0, 0, 0)" stroke-miterlimit="10" pointer-events="all"/><g transform="translate(-0.5 -0.5)"><switch><foreignObject pointer-events="none" width="100%" height="100%" requiredFeatures="http://www.w3.org/TR/SVG11/feature#Extensibility" style="overflow: visible; text-align: left;"><div xmlns="http://www.w3.org/1999/xhtml" style="display: flex; align-items: unsafe center; justify-content: unsafe center; width: 118px; height: 1px; padding-top: 327px; margin-left: 1px;"><div data-drawio-colors="color: rgb(0, 0, 0); " style="box-sizing: border-box; font-size: 0px; text-align: center;"><div style="display: inline-block; font-size: 12px; font-family: Helvetica; color: rgb(0, 0, 0); line-height: 1.2; pointer-events: all; white-space: normal; overflow-wrap: normal;">Integar<br />-inf to inf</div></div></div></foreignObject><text x="60" y="331" fill="rgb(0, 0, 0)" font-family="Helvetica" font-size="12px" text-anchor="middle">Integar...</text></switch></g><path d="M 170 287 C 146 287 140 307 159.2 311 C 140 319.8 161.6 339 177.2 331 C 188 347 224 347 236 331 C 260 331 260 315 245 307 C 260 291 236 275 215 283 C 200 271 176 271 170 287 Z" fill="rgb(255, 255, 255)" stroke="rgb(0, 0, 0)" stroke-miterlimit="10" pointer-events="all"/><g transform="translate(-0.5 -0.5)"><switch><foreignObject pointer-events="none" width="100%" height="100%" requiredFeatures="http://www.w3.org/TR/SVG11/feature#Extensibility" style="overflow: visible; text-align: left;"><div xmlns="http://www.w3.org/1999/xhtml" style="display: flex; align-items: unsafe center; justify-content: unsafe center; width: 118px; height: 1px; padding-top: 307px; margin-left: 141px;"><div data-drawio-colors="color: rgb(0, 0, 0); " style="box-sizing: border-box; font-size: 0px; text-align: center;"><div style="display: inline-block; font-size: 12px; font-family: Helvetica; color: rgb(0, 0, 0); line-height: 1.2; pointer-events: all; white-space: normal; overflow-wrap: normal;">Float<br />Decimal values</div></div></div></foreignObject><text x="200" y="311" fill="rgb(0, 0, 0)" font-family="Helvetica" font-size="12px" text-anchor="middle">Float...</text></switch></g><path d="M 100 377 C 76 377 70 397 89.2 401 C 70 409.8 91.6 429 107.2 421 C 118 437 154 437 166 421 C 190 421 190 405 175 397 C 190 381 166 365 145 373 C 130 361 106 361 100 377 Z" fill="rgb(255, 255, 255)" stroke="rgb(0, 0, 0)" stroke-miterlimit="10" pointer-events="all"/><g transform="translate(-0.5 -0.5)"><switch><foreignObject pointer-events="none" width="100%" height="100%" requiredFeatures="http://www.w3.org/TR/SVG11/feature#Extensibility" style="overflow: visible; text-align: left;"><div xmlns="http://www.w3.org/1999/xhtml" style="display: flex; align-items: unsafe center; justify-content: unsafe center; width: 118px; height: 1px; padding-top: 397px; margin-left: 71px;"><div data-drawio-colors="color: rgb(0, 0, 0); " style="box-sizing: border-box; font-size: 0px; text-align: center;"><div style="display: inline-block; font-size: 12px; font-family: Helvetica; color: rgb(0, 0, 0); line-height: 1.2; pointer-events: all; white-space: normal; overflow-wrap: normal;">Complex<br />complex with imaginary part<br />3 + 2i</div></div></div></foreignObject><text x="130" y="401" fill="rgb(0, 0, 0)" font-family="Helvetica" font-size="12px" text-anchor="middle">Complex...</text></switch></g><path d="M 295 299.5 C 267 299.5 260 322 282.4 326.5 C 260 336.4 285.2 358 303.4 349 C 316 367 358 367 372 349 C 400 349 400 331 382.5 322 C 400 304 372 286 347.5 295 C 330 281.5 302 281.5 295 299.5 Z" fill="rgb(255, 255, 255)" stroke="rgb(0, 0, 0)" stroke-miterlimit="10" pointer-events="all"/><g transform="translate(-0.5 -0.5)"><switch><foreignObject pointer-events="none" width="100%" height="100%" requiredFeatures="http://www.w3.org/TR/SVG11/feature#Extensibility" style="overflow: visible; text-align: left;"><div xmlns="http://www.w3.org/1999/xhtml" style="display: flex; align-items: unsafe center; justify-content: unsafe center; width: 138px; height: 1px; padding-top: 322px; margin-left: 261px;"><div data-drawio-colors="color: rgb(0, 0, 0); " style="box-sizing: border-box; font-size: 0px; text-align: center;"><div style="display: inline-block; font-size: 12px; font-family: Helvetica; color: rgb(0, 0, 0); line-height: 1.2; pointer-events: all; white-space: normal; overflow-wrap: normal;">string<br />all alphabet a to z</div></div></div></foreignObject><text x="330" y="326" fill="rgb(0, 0, 0)" font-family="Helvetica" font-size="12px" text-anchor="middle">string...</text></switch></g><path d="M 450 267 C 426 267 420 287 439.2 291 C 420 299.8 441.6 319 457.2 311 C 468 327 504 327 516 311 C 540 311 540 295 525 287 C 540 271 516 255 495 263 C 480 251 456 251 450 267 Z" fill="rgb(255, 255, 255)" stroke="rgb(0, 0, 0)" stroke-miterlimit="10" pointer-events="all"/><g transform="translate(-0.5 -0.5)"><switch><foreignObject pointer-events="none" width="100%" height="100%" requiredFeatures="http://www.w3.org/TR/SVG11/feature#Extensibility" style="overflow: visible; text-align: left;"><div xmlns="http://www.w3.org/1999/xhtml" style="display: flex; align-items: unsafe center; justify-content: unsafe center; width: 118px; height: 1px; padding-top: 287px; margin-left: 421px;"><div data-drawio-colors="color: rgb(0, 0, 0); " style="box-sizing: border-box; font-size: 0px; text-align: center;"><div style="display: inline-block; font-size: 12px; font-family: Helvetica; color: rgb(0, 0, 0); line-height: 1.2; pointer-events: all; white-space: normal; overflow-wrap: normal;">list<br />[]</div></div></div></foreignObject><text x="480" y="291" fill="rgb(0, 0, 0)" font-family="Helvetica" font-size="12px" text-anchor="middle">list...</text></switch></g><path d="M 640 277 C 616 277 610 297 629.2 301 C 610 309.8 631.6 329 647.2 321 C 658 337 694 337 706 321 C 730 321 730 305 715 297 C 730 281 706 265 685 273 C 670 261 646 261 640 277 Z" fill="rgb(255, 255, 255)" stroke="rgb(0, 0, 0)" stroke-miterlimit="10" pointer-events="all"/><g transform="translate(-0.5 -0.5)"><switch><foreignObject pointer-events="none" width="100%" height="100%" requiredFeatures="http://www.w3.org/TR/SVG11/feature#Extensibility" style="overflow: visible; text-align: left;"><div xmlns="http://www.w3.org/1999/xhtml" style="display: flex; align-items: unsafe center; justify-content: unsafe center; width: 118px; height: 1px; padding-top: 297px; margin-left: 611px;"><div data-drawio-colors="color: rgb(0, 0, 0); " style="box-sizing: border-box; font-size: 0px; text-align: center;"><div style="display: inline-block; font-size: 12px; font-family: Helvetica; color: rgb(0, 0, 0); line-height: 1.2; pointer-events: all; white-space: normal; overflow-wrap: normal;">tuple<br />()</div></div></div></foreignObject><text x="670" y="301" fill="rgb(0, 0, 0)" font-family="Helvetica" font-size="12px" text-anchor="middle">tuple...</text></switch></g><path d="M 500 387 C 476 387 470 407 489.2 411 C 470 419.8 491.6 439 507.2 431 C 518 447 554 447 566 431 C 590 431 590 415 575 407 C 590 391 566 375 545 383 C 530 371 506 371 500 387 Z" fill="rgb(255, 255, 255)" stroke="rgb(0, 0, 0)" stroke-miterlimit="10" pointer-events="all"/><g transform="translate(-0.5 -0.5)"><switch><foreignObject pointer-events="none" width="100%" height="100%" requiredFeatures="http://www.w3.org/TR/SVG11/feature#Extensibility" style="overflow: visible; text-align: left;"><div xmlns="http://www.w3.org/1999/xhtml" style="display: flex; align-items: unsafe center; justify-content: unsafe center; width: 118px; height: 1px; padding-top: 407px; margin-left: 471px;"><div data-drawio-colors="color: rgb(0, 0, 0); " style="box-sizing: border-box; font-size: 0px; text-align: center;"><div style="display: inline-block; font-size: 12px; font-family: Helvetica; color: rgb(0, 0, 0); line-height: 1.2; pointer-events: all; white-space: normal; overflow-wrap: normal;">dict<br />{}</div></div></div></foreignObject><text x="530" y="411" fill="rgb(0, 0, 0)" font-family="Helvetica" font-size="12px" text-anchor="middle">dict...</text></switch></g><path d="M 640 387 C 616 387 610 407 629.2 411 C 610 419.8 631.6 439 647.2 431 C 658 447 694 447 706 431 C 730 431 730 415 715 407 C 730 391 706 375 685 383 C 670 371 646 371 640 387 Z" fill="rgb(255, 255, 255)" stroke="rgb(0, 0, 0)" stroke-miterlimit="10" pointer-events="all"/><g transform="translate(-0.5 -0.5)"><switch><foreignObject pointer-events="none" width="100%" height="100%" requiredFeatures="http://www.w3.org/TR/SVG11/feature#Extensibility" style="overflow: visible; text-align: left;"><div xmlns="http://www.w3.org/1999/xhtml" style="display: flex; align-items: unsafe center; justify-content: unsafe center; width: 118px; height: 1px; padding-top: 407px; margin-left: 611px;"><div data-drawio-colors="color: rgb(0, 0, 0); " style="box-sizing: border-box; font-size: 0px; text-align: center;"><div style="display: inline-block; font-size: 12px; font-family: Helvetica; color: rgb(0, 0, 0); line-height: 1.2; pointer-events: all; white-space: normal; overflow-wrap: normal;">set<br />{}</div></div></div></foreignObject><text x="670" y="411" fill="rgb(0, 0, 0)" font-family="Helvetica" font-size="12px" text-anchor="middle">set...</text></switch></g><path d="M 760 277 C 736 277 730 297 749.2 301 C 730 309.8 751.6 329 767.2 321 C 778 337 814 337 826 321 C 850 321 850 305 835 297 C 850 281 826 265 805 273 C 790 261 766 261 760 277 Z" fill="rgb(255, 255, 255)" stroke="rgb(0, 0, 0)" stroke-miterlimit="10" pointer-events="all"/><g transform="translate(-0.5 -0.5)"><switch><foreignObject pointer-events="none" width="100%" height="100%" requiredFeatures="http://www.w3.org/TR/SVG11/feature#Extensibility" style="overflow: visible; text-align: left;"><div xmlns="http://www.w3.org/1999/xhtml" style="display: flex; align-items: unsafe center; justify-content: unsafe center; width: 118px; height: 1px; padding-top: 297px; margin-left: 731px;"><div data-drawio-colors="color: rgb(0, 0, 0); " style="box-sizing: border-box; font-size: 0px; text-align: center;"><div style="display: inline-block; font-size: 12px; font-family: Helvetica; color: rgb(0, 0, 0); line-height: 1.2; pointer-events: all; white-space: normal; overflow-wrap: normal;">true or false</div></div></div></foreignObject><text x="790" y="301" fill="rgb(0, 0, 0)" font-family="Helvetica" font-size="12px" text-anchor="middle">true or false</text></switch></g><path d="M 880 227 L 880.07 247.07 L 898.07 247.07 L 898.02 268.63" fill="none" stroke="rgb(0, 0, 0)" stroke-miterlimit="10" pointer-events="stroke"/><path d="M 898 273.88 L 894.52 266.87 L 898.02 268.63 L 901.52 266.89 Z" fill="rgb(0, 0, 0)" stroke="rgb(0, 0, 0)" stroke-miterlimit="10" pointer-events="all"/><path d="M 940 227 L 940.07 257.07 L 1038.07 257.07 L 1038.01 288.63" fill="none" stroke="rgb(0, 0, 0)" stroke-miterlimit="10" pointer-events="stroke"/><path d="M 1038 293.88 L 1034.51 286.88 L 1038.01 288.63 L 1041.51 286.89 Z" fill="rgb(0, 0, 0)" stroke="rgb(0, 0, 0)" stroke-miterlimit="10" pointer-events="all"/><rect x="850" y="167" width="120" height="60" rx="9" ry="9" fill="rgb(255, 255, 255)" stroke="rgb(0, 0, 0)" pointer-events="all"/><g transform="translate(-0.5 -0.5)"><switch><foreignObject pointer-events="none" width="100%" height="100%" requiredFeatures="http://www.w3.org/TR/SVG11/feature#Extensibility" style="overflow: visible; text-align: left;"><div xmlns="http://www.w3.org/1999/xhtml" style="display: flex; align-items: unsafe center; justify-content: unsafe center; width: 118px; height: 1px; padding-top: 197px; margin-left: 851px;"><div data-drawio-colors="color: rgb(0, 0, 0); " style="box-sizing: border-box; font-size: 0px; text-align: center;"><div style="display: inline-block; font-size: 12px; font-family: Helvetica; color: rgb(0, 0, 0); line-height: 1.2; pointer-events: all; white-space: normal; overflow-wrap: normal;">byte</div></div></div></foreignObject><text x="910" y="201" fill="rgb(0, 0, 0)" font-family="Helvetica" font-size="12px" text-anchor="middle">byte</text></switch></g><rect x="1010" y="167" width="120" height="60" rx="9" ry="9" fill="rgb(255, 255, 255)" stroke="rgb(0, 0, 0)" pointer-events="all"/><g transform="translate(-0.5 -0.5)"><switch><foreignObject pointer-events="none" width="100%" height="100%" requiredFeatures="http://www.w3.org/TR/SVG11/feature#Extensibility" style="overflow: visible; text-align: left;"><div xmlns="http://www.w3.org/1999/xhtml" style="display: flex; align-items: unsafe center; justify-content: unsafe center; width: 118px; height: 1px; padding-top: 197px; margin-left: 1011px;"><div data-drawio-colors="color: rgb(0, 0, 0); " style="box-sizing: border-box; font-size: 0px; text-align: center;"><div style="display: inline-block; font-size: 12px; font-family: Helvetica; color: rgb(0, 0, 0); line-height: 1.2; pointer-events: all; white-space: normal; overflow-wrap: normal;">nonetype</div></div></div></foreignObject><text x="1070" y="201" fill="rgb(0, 0, 0)" font-family="Helvetica" font-size="12px" text-anchor="middle">nonetype</text></switch></g><path d="M 880 287 C 856 287 850 307 869.2 311 C 850 319.8 871.6 339 887.2 331 C 898 347 934 347 946 331 C 970 331 970 315 955 307 C 970 291 946 275 925 283 C 910 271 886 271 880 287 Z" fill="rgb(255, 255, 255)" stroke="rgb(0, 0, 0)" stroke-miterlimit="10" pointer-events="all"/><g transform="translate(-0.5 -0.5)"><switch><foreignObject pointer-events="none" width="100%" height="100%" requiredFeatures="http://www.w3.org/TR/SVG11/feature#Extensibility" style="overflow: visible; text-align: left;"><div xmlns="http://www.w3.org/1999/xhtml" style="display: flex; align-items: unsafe center; justify-content: unsafe center; width: 118px; height: 1px; padding-top: 307px; margin-left: 851px;"><div data-drawio-colors="color: rgb(0, 0, 0); " style="box-sizing: border-box; font-size: 0px; text-align: center;"><div style="display: inline-block; font-size: 12px; font-family: Helvetica; color: rgb(0, 0, 0); line-height: 1.2; pointer-events: all; white-space: normal; overflow-wrap: normal;">memoryview</div></div></div></foreignObject><text x="910" y="311" fill="rgb(0, 0, 0)" font-family="Helvetica" font-size="12px" text-anchor="middle">memoryview</text></switch></g><path d="M 1020 307 C 996 307 990 327 1009.2 331 C 990 339.8 1011.6 359 1027.2 351 C 1038 367 1074 367 1086 351 C 1110 351 1110 335 1095 327 C 1110 311 1086 295 1065 303 C 1050 291 1026 291 1020 307 Z" fill="rgb(255, 255, 255)" stroke="rgb(0, 0, 0)" stroke-miterlimit="10" pointer-events="all"/><g transform="translate(-0.5 -0.5)"><switch><foreignObject pointer-events="none" width="100%" height="100%" requiredFeatures="http://www.w3.org/TR/SVG11/feature#Extensibility" style="overflow: visible; text-align: left;"><div xmlns="http://www.w3.org/1999/xhtml" style="display: flex; align-items: unsafe center; justify-content: unsafe center; width: 118px; height: 1px; padding-top: 327px; margin-left: 991px;"><div data-drawio-colors="color: rgb(0, 0, 0); " style="box-sizing: border-box; font-size: 0px; text-align: center;"><div style="display: inline-block; font-size: 12px; font-family: Helvetica; color: rgb(0, 0, 0); line-height: 1.2; pointer-events: all; white-space: normal; overflow-wrap: normal;">bytearray</div></div></div></foreignObject><text x="1050" y="331" fill="rgb(0, 0, 0)" font-family="Helvetica" font-size="12px" text-anchor="middle">bytearray</text></switch></g></g><switch><g requiredFeatures="http://www.w3.org/TR/SVG11/feature#Extensibility"/><a transform="translate(0,-5)" xlink:href="https://www.drawio.com/doc/faq/svg-export-text-problems" target="_blank"><text text-anchor="middle" font-size="10px" x="50%" y="100%">Text is not SVG - cannot display</text></a></switch></svg>